<mxfile host="Electron" modified="2024-03-01T03:50:44.393Z" agent="Mozilla/5.0 (X11; Linux x86_64) AppleWebKit/537.36 (KHTML, like Gecko) draw.io/23.1.5 Chrome/120.0.6099.109 Electron/28.1.0 Safari/537.36" etag="k_8FAU10G6WK9T_XNuEw" version="23.1.5" type="device">
  <diagram name="第 1 页" id="OrBlAernm3KL54c1lo3-">
    <mxGraphModel dx="2768" dy="2167" grid="1" gridSize="10" guides="1" tooltips="1" connect="1" arrows="1" fold="1" page="1" pageScale="1" pageWidth="827" pageHeight="1169" math="0" shadow="0">
      <root>
        <mxCell id="0" />
        <mxCell id="1" parent="0" />
        <mxCell id="jwuHmIJ8ylgLaas11iSZ-6" style="edgeStyle=orthogonalEdgeStyle;rounded=0;orthogonalLoop=1;jettySize=auto;html=1;exitX=0;exitY=0.5;exitDx=0;exitDy=0;entryX=0.5;entryY=1;entryDx=0;entryDy=0;" edge="1" parent="1" source="jwuHmIJ8ylgLaas11iSZ-12" target="jwuHmIJ8ylgLaas11iSZ-5">
          <mxGeometry relative="1" as="geometry" />
        </mxCell>
        <mxCell id="jwuHmIJ8ylgLaas11iSZ-7" style="edgeStyle=orthogonalEdgeStyle;rounded=0;orthogonalLoop=1;jettySize=auto;html=1;exitX=1;exitY=0.5;exitDx=0;exitDy=0;entryX=0.5;entryY=1;entryDx=0;entryDy=0;" edge="1" parent="1" source="jwuHmIJ8ylgLaas11iSZ-12" target="jwuHmIJ8ylgLaas11iSZ-2">
          <mxGeometry relative="1" as="geometry" />
        </mxCell>
        <mxCell id="jwuHmIJ8ylgLaas11iSZ-14" style="edgeStyle=orthogonalEdgeStyle;rounded=0;orthogonalLoop=1;jettySize=auto;html=1;exitX=0.5;exitY=0;exitDx=0;exitDy=0;entryX=0.5;entryY=1;entryDx=0;entryDy=0;curved=1;" edge="1" parent="1" source="jwuHmIJ8ylgLaas11iSZ-1" target="jwuHmIJ8ylgLaas11iSZ-12">
          <mxGeometry relative="1" as="geometry" />
        </mxCell>
        <mxCell id="jwuHmIJ8ylgLaas11iSZ-16" style="edgeStyle=orthogonalEdgeStyle;rounded=0;orthogonalLoop=1;jettySize=auto;html=1;exitX=0.5;exitY=1;exitDx=0;exitDy=0;curved=1;" edge="1" parent="1" source="jwuHmIJ8ylgLaas11iSZ-1" target="jwuHmIJ8ylgLaas11iSZ-15">
          <mxGeometry relative="1" as="geometry" />
        </mxCell>
        <mxCell id="jwuHmIJ8ylgLaas11iSZ-35" style="edgeStyle=orthogonalEdgeStyle;rounded=0;orthogonalLoop=1;jettySize=auto;html=1;exitX=1;exitY=0.5;exitDx=0;exitDy=0;entryX=0;entryY=0.5;entryDx=0;entryDy=0;" edge="1" parent="1" source="jwuHmIJ8ylgLaas11iSZ-1" target="jwuHmIJ8ylgLaas11iSZ-28">
          <mxGeometry relative="1" as="geometry" />
        </mxCell>
        <mxCell id="jwuHmIJ8ylgLaas11iSZ-48" style="edgeStyle=orthogonalEdgeStyle;rounded=0;orthogonalLoop=1;jettySize=auto;html=1;exitX=0;exitY=0.5;exitDx=0;exitDy=0;entryX=1;entryY=0;entryDx=0;entryDy=0;curved=1;" edge="1" parent="1" source="jwuHmIJ8ylgLaas11iSZ-1" target="jwuHmIJ8ylgLaas11iSZ-45">
          <mxGeometry relative="1" as="geometry" />
        </mxCell>
        <mxCell id="jwuHmIJ8ylgLaas11iSZ-61" style="edgeStyle=orthogonalEdgeStyle;rounded=0;orthogonalLoop=1;jettySize=auto;html=1;exitX=0;exitY=0;exitDx=0;exitDy=0;entryX=1;entryY=0.5;entryDx=0;entryDy=0;curved=1;" edge="1" parent="1" source="jwuHmIJ8ylgLaas11iSZ-1" target="jwuHmIJ8ylgLaas11iSZ-25">
          <mxGeometry relative="1" as="geometry" />
        </mxCell>
        <mxCell id="jwuHmIJ8ylgLaas11iSZ-1" value="redis" style="ellipse;whiteSpace=wrap;html=1;" vertex="1" parent="1">
          <mxGeometry x="770" y="480" width="120" height="80" as="geometry" />
        </mxCell>
        <mxCell id="jwuHmIJ8ylgLaas11iSZ-8" style="edgeStyle=orthogonalEdgeStyle;rounded=0;orthogonalLoop=1;jettySize=auto;html=1;exitX=0.5;exitY=0;exitDx=0;exitDy=0;entryX=0.5;entryY=1;entryDx=0;entryDy=0;" edge="1" parent="1" source="jwuHmIJ8ylgLaas11iSZ-2" target="jwuHmIJ8ylgLaas11iSZ-4">
          <mxGeometry relative="1" as="geometry" />
        </mxCell>
        <mxCell id="jwuHmIJ8ylgLaas11iSZ-2" value="单线程" style="ellipse;whiteSpace=wrap;html=1;" vertex="1" parent="1">
          <mxGeometry x="960" y="90" width="120" height="80" as="geometry" />
        </mxCell>
        <mxCell id="jwuHmIJ8ylgLaas11iSZ-11" style="edgeStyle=orthogonalEdgeStyle;rounded=0;orthogonalLoop=1;jettySize=auto;html=1;exitX=0.5;exitY=0;exitDx=0;exitDy=0;entryX=0.5;entryY=1;entryDx=0;entryDy=0;" edge="1" parent="1" source="jwuHmIJ8ylgLaas11iSZ-3" target="jwuHmIJ8ylgLaas11iSZ-10">
          <mxGeometry relative="1" as="geometry" />
        </mxCell>
        <mxCell id="jwuHmIJ8ylgLaas11iSZ-3" value="网络io" style="ellipse;whiteSpace=wrap;html=1;" vertex="1" parent="1">
          <mxGeometry x="510" y="-80" width="120" height="80" as="geometry" />
        </mxCell>
        <mxCell id="jwuHmIJ8ylgLaas11iSZ-4" value="键值对读写" style="ellipse;whiteSpace=wrap;html=1;" vertex="1" parent="1">
          <mxGeometry x="960" y="-100" width="120" height="80" as="geometry" />
        </mxCell>
        <mxCell id="jwuHmIJ8ylgLaas11iSZ-9" style="edgeStyle=orthogonalEdgeStyle;rounded=0;orthogonalLoop=1;jettySize=auto;html=1;exitX=0.5;exitY=0;exitDx=0;exitDy=0;entryX=0.5;entryY=1;entryDx=0;entryDy=0;" edge="1" parent="1" source="jwuHmIJ8ylgLaas11iSZ-5" target="jwuHmIJ8ylgLaas11iSZ-3">
          <mxGeometry relative="1" as="geometry" />
        </mxCell>
        <mxCell id="jwuHmIJ8ylgLaas11iSZ-5" value="6.0版本以后&lt;br&gt;多线程" style="ellipse;whiteSpace=wrap;html=1;" vertex="1" parent="1">
          <mxGeometry x="510" y="110" width="120" height="80" as="geometry" />
        </mxCell>
        <mxCell id="jwuHmIJ8ylgLaas11iSZ-10" value="epoll" style="ellipse;whiteSpace=wrap;html=1;" vertex="1" parent="1">
          <mxGeometry x="510" y="-270" width="120" height="80" as="geometry" />
        </mxCell>
        <mxCell id="jwuHmIJ8ylgLaas11iSZ-12" value="线程" style="ellipse;whiteSpace=wrap;html=1;" vertex="1" parent="1">
          <mxGeometry x="770" y="230" width="120" height="80" as="geometry" />
        </mxCell>
        <mxCell id="jwuHmIJ8ylgLaas11iSZ-21" style="edgeStyle=orthogonalEdgeStyle;rounded=0;orthogonalLoop=1;jettySize=auto;html=1;exitX=0;exitY=0.5;exitDx=0;exitDy=0;entryX=0.5;entryY=0;entryDx=0;entryDy=0;" edge="1" parent="1" source="jwuHmIJ8ylgLaas11iSZ-15" target="jwuHmIJ8ylgLaas11iSZ-17">
          <mxGeometry relative="1" as="geometry" />
        </mxCell>
        <mxCell id="jwuHmIJ8ylgLaas11iSZ-22" style="edgeStyle=orthogonalEdgeStyle;rounded=0;orthogonalLoop=1;jettySize=auto;html=1;exitX=0;exitY=1;exitDx=0;exitDy=0;" edge="1" parent="1" source="jwuHmIJ8ylgLaas11iSZ-15" target="jwuHmIJ8ylgLaas11iSZ-18">
          <mxGeometry relative="1" as="geometry" />
        </mxCell>
        <mxCell id="jwuHmIJ8ylgLaas11iSZ-23" style="edgeStyle=orthogonalEdgeStyle;rounded=0;orthogonalLoop=1;jettySize=auto;html=1;exitX=1;exitY=1;exitDx=0;exitDy=0;" edge="1" parent="1" source="jwuHmIJ8ylgLaas11iSZ-15" target="jwuHmIJ8ylgLaas11iSZ-19">
          <mxGeometry relative="1" as="geometry" />
        </mxCell>
        <mxCell id="jwuHmIJ8ylgLaas11iSZ-24" style="edgeStyle=orthogonalEdgeStyle;rounded=0;orthogonalLoop=1;jettySize=auto;html=1;exitX=1;exitY=0.5;exitDx=0;exitDy=0;" edge="1" parent="1" source="jwuHmIJ8ylgLaas11iSZ-15" target="jwuHmIJ8ylgLaas11iSZ-20">
          <mxGeometry relative="1" as="geometry" />
        </mxCell>
        <mxCell id="jwuHmIJ8ylgLaas11iSZ-15" value="为什么快" style="ellipse;whiteSpace=wrap;html=1;" vertex="1" parent="1">
          <mxGeometry x="766" y="1070" width="120" height="80" as="geometry" />
        </mxCell>
        <mxCell id="jwuHmIJ8ylgLaas11iSZ-17" value="内存" style="ellipse;whiteSpace=wrap;html=1;" vertex="1" parent="1">
          <mxGeometry x="350" y="1260" width="120" height="80" as="geometry" />
        </mxCell>
        <mxCell id="jwuHmIJ8ylgLaas11iSZ-18" value="不需要线程切换" style="ellipse;whiteSpace=wrap;html=1;" vertex="1" parent="1">
          <mxGeometry x="676" y="1260" width="120" height="80" as="geometry" />
        </mxCell>
        <mxCell id="jwuHmIJ8ylgLaas11iSZ-19" value="io多路复用" style="ellipse;whiteSpace=wrap;html=1;" vertex="1" parent="1">
          <mxGeometry x="936" y="1260" width="120" height="80" as="geometry" />
        </mxCell>
        <mxCell id="jwuHmIJ8ylgLaas11iSZ-20" value="存储结构高效" style="ellipse;whiteSpace=wrap;html=1;" vertex="1" parent="1">
          <mxGeometry x="1206" y="1260" width="120" height="80" as="geometry" />
        </mxCell>
        <mxCell id="jwuHmIJ8ylgLaas11iSZ-27" style="edgeStyle=orthogonalEdgeStyle;rounded=0;orthogonalLoop=1;jettySize=auto;html=1;exitX=0.5;exitY=0;exitDx=0;exitDy=0;entryX=1;entryY=0.5;entryDx=0;entryDy=0;" edge="1" parent="1" source="jwuHmIJ8ylgLaas11iSZ-25" target="jwuHmIJ8ylgLaas11iSZ-26">
          <mxGeometry relative="1" as="geometry" />
        </mxCell>
        <mxCell id="jwuHmIJ8ylgLaas11iSZ-25" value="小坑" style="ellipse;whiteSpace=wrap;html=1;" vertex="1" parent="1">
          <mxGeometry x="294" y="440" width="120" height="80" as="geometry" />
        </mxCell>
        <mxCell id="jwuHmIJ8ylgLaas11iSZ-26" value="key过期没释放&lt;br&gt;重新set值没加过期时间" style="ellipse;whiteSpace=wrap;html=1;" vertex="1" parent="1">
          <mxGeometry x="-80" y="310" width="170" height="80" as="geometry" />
        </mxCell>
        <mxCell id="jwuHmIJ8ylgLaas11iSZ-32" style="edgeStyle=orthogonalEdgeStyle;rounded=0;orthogonalLoop=1;jettySize=auto;html=1;exitX=1;exitY=0;exitDx=0;exitDy=0;entryX=0;entryY=0.5;entryDx=0;entryDy=0;curved=1;" edge="1" parent="1" source="jwuHmIJ8ylgLaas11iSZ-28" target="jwuHmIJ8ylgLaas11iSZ-29">
          <mxGeometry relative="1" as="geometry" />
        </mxCell>
        <mxCell id="jwuHmIJ8ylgLaas11iSZ-37" style="edgeStyle=orthogonalEdgeStyle;rounded=0;orthogonalLoop=1;jettySize=auto;html=1;exitX=1;exitY=0.5;exitDx=0;exitDy=0;entryX=0;entryY=0.5;entryDx=0;entryDy=0;curved=1;" edge="1" parent="1" source="jwuHmIJ8ylgLaas11iSZ-28" target="jwuHmIJ8ylgLaas11iSZ-36">
          <mxGeometry relative="1" as="geometry" />
        </mxCell>
        <mxCell id="jwuHmIJ8ylgLaas11iSZ-28" value="策略" style="ellipse;whiteSpace=wrap;html=1;" vertex="1" parent="1">
          <mxGeometry x="1210" y="480" width="120" height="80" as="geometry" />
        </mxCell>
        <mxCell id="jwuHmIJ8ylgLaas11iSZ-33" style="edgeStyle=orthogonalEdgeStyle;rounded=0;orthogonalLoop=1;jettySize=auto;html=1;exitX=1;exitY=0;exitDx=0;exitDy=0;entryX=0;entryY=0.5;entryDx=0;entryDy=0;curved=1;" edge="1" parent="1" source="jwuHmIJ8ylgLaas11iSZ-29" target="jwuHmIJ8ylgLaas11iSZ-30">
          <mxGeometry relative="1" as="geometry" />
        </mxCell>
        <mxCell id="jwuHmIJ8ylgLaas11iSZ-34" style="edgeStyle=orthogonalEdgeStyle;rounded=0;orthogonalLoop=1;jettySize=auto;html=1;exitX=1;exitY=1;exitDx=0;exitDy=0;entryX=0;entryY=0.5;entryDx=0;entryDy=0;curved=1;" edge="1" parent="1" source="jwuHmIJ8ylgLaas11iSZ-29" target="jwuHmIJ8ylgLaas11iSZ-31">
          <mxGeometry relative="1" as="geometry" />
        </mxCell>
        <mxCell id="jwuHmIJ8ylgLaas11iSZ-29" value="删除" style="ellipse;whiteSpace=wrap;html=1;" vertex="1" parent="1">
          <mxGeometry x="1510" y="300" width="120" height="80" as="geometry" />
        </mxCell>
        <mxCell id="jwuHmIJ8ylgLaas11iSZ-30" value="惰性删除&lt;br&gt;不一定马上删除&lt;br&gt;读写时检查是否过期删除" style="ellipse;whiteSpace=wrap;html=1;" vertex="1" parent="1">
          <mxGeometry x="1730" y="150" width="240" height="80" as="geometry" />
        </mxCell>
        <mxCell id="jwuHmIJ8ylgLaas11iSZ-31" value="定时删除&lt;br&gt;定时删一批 不是一次性全删" style="ellipse;whiteSpace=wrap;html=1;" vertex="1" parent="1">
          <mxGeometry x="1850" y="350" width="120" height="80" as="geometry" />
        </mxCell>
        <mxCell id="jwuHmIJ8ylgLaas11iSZ-42" style="edgeStyle=orthogonalEdgeStyle;rounded=0;orthogonalLoop=1;jettySize=auto;html=1;exitX=1;exitY=0;exitDx=0;exitDy=0;entryX=0;entryY=0.5;entryDx=0;entryDy=0;curved=1;" edge="1" parent="1" source="jwuHmIJ8ylgLaas11iSZ-36" target="jwuHmIJ8ylgLaas11iSZ-38">
          <mxGeometry relative="1" as="geometry" />
        </mxCell>
        <mxCell id="jwuHmIJ8ylgLaas11iSZ-43" style="edgeStyle=orthogonalEdgeStyle;rounded=0;orthogonalLoop=1;jettySize=auto;html=1;exitX=1;exitY=0.5;exitDx=0;exitDy=0;entryX=0;entryY=0.5;entryDx=0;entryDy=0;curved=1;" edge="1" parent="1" source="jwuHmIJ8ylgLaas11iSZ-36" target="jwuHmIJ8ylgLaas11iSZ-40">
          <mxGeometry relative="1" as="geometry" />
        </mxCell>
        <mxCell id="jwuHmIJ8ylgLaas11iSZ-44" style="edgeStyle=orthogonalEdgeStyle;rounded=0;orthogonalLoop=1;jettySize=auto;html=1;exitX=1;exitY=1;exitDx=0;exitDy=0;entryX=0;entryY=0.5;entryDx=0;entryDy=0;curved=1;" edge="1" parent="1" source="jwuHmIJ8ylgLaas11iSZ-36" target="jwuHmIJ8ylgLaas11iSZ-41">
          <mxGeometry relative="1" as="geometry" />
        </mxCell>
        <mxCell id="jwuHmIJ8ylgLaas11iSZ-36" value="超过maxmamory&lt;br&gt;内存淘汰策略" style="ellipse;whiteSpace=wrap;html=1;" vertex="1" parent="1">
          <mxGeometry x="1600" y="600" width="120" height="80" as="geometry" />
        </mxCell>
        <mxCell id="jwuHmIJ8ylgLaas11iSZ-38" value="设置了过期时间的key" style="ellipse;whiteSpace=wrap;html=1;" vertex="1" parent="1">
          <mxGeometry x="1860" y="480" width="120" height="80" as="geometry" />
        </mxCell>
        <mxCell id="jwuHmIJ8ylgLaas11iSZ-40" value="所有key" style="ellipse;whiteSpace=wrap;html=1;" vertex="1" parent="1">
          <mxGeometry x="1920" y="600" width="120" height="80" as="geometry" />
        </mxCell>
        <mxCell id="jwuHmIJ8ylgLaas11iSZ-41" value="不处理报错" style="ellipse;whiteSpace=wrap;html=1;" vertex="1" parent="1">
          <mxGeometry x="1870" y="740" width="120" height="80" as="geometry" />
        </mxCell>
        <mxCell id="jwuHmIJ8ylgLaas11iSZ-47" style="edgeStyle=orthogonalEdgeStyle;rounded=0;orthogonalLoop=1;jettySize=auto;html=1;exitX=0;exitY=0;exitDx=0;exitDy=0;entryX=1;entryY=0.5;entryDx=0;entryDy=0;curved=1;" edge="1" parent="1" source="jwuHmIJ8ylgLaas11iSZ-45" target="jwuHmIJ8ylgLaas11iSZ-46">
          <mxGeometry relative="1" as="geometry" />
        </mxCell>
        <mxCell id="jwuHmIJ8ylgLaas11iSZ-50" style="edgeStyle=orthogonalEdgeStyle;rounded=0;orthogonalLoop=1;jettySize=auto;html=1;exitX=0;exitY=1;exitDx=0;exitDy=0;entryX=1;entryY=0.5;entryDx=0;entryDy=0;curved=1;" edge="1" parent="1" source="jwuHmIJ8ylgLaas11iSZ-45" target="jwuHmIJ8ylgLaas11iSZ-49">
          <mxGeometry relative="1" as="geometry" />
        </mxCell>
        <mxCell id="jwuHmIJ8ylgLaas11iSZ-54" style="edgeStyle=orthogonalEdgeStyle;rounded=0;orthogonalLoop=1;jettySize=auto;html=1;exitX=0.5;exitY=1;exitDx=0;exitDy=0;entryX=1;entryY=0.5;entryDx=0;entryDy=0;curved=1;" edge="1" parent="1" source="jwuHmIJ8ylgLaas11iSZ-45" target="jwuHmIJ8ylgLaas11iSZ-53">
          <mxGeometry relative="1" as="geometry" />
        </mxCell>
        <mxCell id="jwuHmIJ8ylgLaas11iSZ-65" style="edgeStyle=orthogonalEdgeStyle;rounded=0;orthogonalLoop=1;jettySize=auto;html=1;exitX=1;exitY=1;exitDx=0;exitDy=0;entryX=1;entryY=0.5;entryDx=0;entryDy=0;curved=1;" edge="1" parent="1" source="jwuHmIJ8ylgLaas11iSZ-45" target="jwuHmIJ8ylgLaas11iSZ-64">
          <mxGeometry relative="1" as="geometry">
            <Array as="points">
              <mxPoint x="210" y="728" />
              <mxPoint x="210" y="1200" />
              <mxPoint x="65" y="1200" />
            </Array>
          </mxGeometry>
        </mxCell>
        <mxCell id="jwuHmIJ8ylgLaas11iSZ-73" style="edgeStyle=orthogonalEdgeStyle;rounded=0;orthogonalLoop=1;jettySize=auto;html=1;exitX=1;exitY=0.5;exitDx=0;exitDy=0;entryX=0;entryY=0.5;entryDx=0;entryDy=0;curved=1;" edge="1" parent="1" source="jwuHmIJ8ylgLaas11iSZ-45" target="jwuHmIJ8ylgLaas11iSZ-72">
          <mxGeometry relative="1" as="geometry" />
        </mxCell>
        <mxCell id="jwuHmIJ8ylgLaas11iSZ-45" value="问题" style="ellipse;whiteSpace=wrap;html=1;" vertex="1" parent="1">
          <mxGeometry x="294" y="660" width="120" height="80" as="geometry" />
        </mxCell>
        <mxCell id="jwuHmIJ8ylgLaas11iSZ-52" style="edgeStyle=orthogonalEdgeStyle;rounded=0;orthogonalLoop=1;jettySize=auto;html=1;exitX=0;exitY=0.5;exitDx=0;exitDy=0;entryX=1;entryY=0.5;entryDx=0;entryDy=0;curved=1;" edge="1" parent="1" source="jwuHmIJ8ylgLaas11iSZ-46" target="jwuHmIJ8ylgLaas11iSZ-51">
          <mxGeometry relative="1" as="geometry" />
        </mxCell>
        <mxCell id="jwuHmIJ8ylgLaas11iSZ-46" value="缓存穿透&lt;div&gt;redis 和 db 都没有数据&lt;/div&gt;&lt;div&gt;一直报错打穿数据库&lt;/div&gt;" style="ellipse;whiteSpace=wrap;html=1;" vertex="1" parent="1">
          <mxGeometry x="-120" y="580" width="230" height="80" as="geometry" />
        </mxCell>
        <mxCell id="jwuHmIJ8ylgLaas11iSZ-56" style="edgeStyle=orthogonalEdgeStyle;rounded=0;orthogonalLoop=1;jettySize=auto;html=1;exitX=0.5;exitY=1;exitDx=0;exitDy=0;entryX=1;entryY=0.5;entryDx=0;entryDy=0;" edge="1" parent="1" source="jwuHmIJ8ylgLaas11iSZ-49" target="jwuHmIJ8ylgLaas11iSZ-55">
          <mxGeometry relative="1" as="geometry" />
        </mxCell>
        <mxCell id="jwuHmIJ8ylgLaas11iSZ-60" style="edgeStyle=orthogonalEdgeStyle;rounded=0;orthogonalLoop=1;jettySize=auto;html=1;exitX=0;exitY=0.5;exitDx=0;exitDy=0;curved=1;" edge="1" parent="1" source="jwuHmIJ8ylgLaas11iSZ-49" target="jwuHmIJ8ylgLaas11iSZ-59">
          <mxGeometry relative="1" as="geometry" />
        </mxCell>
        <mxCell id="jwuHmIJ8ylgLaas11iSZ-49" value="缓存击穿：&lt;br&gt;某个热点数据过期失效时，大量请求同时涌入，导致数据库负载剧增" style="ellipse;whiteSpace=wrap;html=1;" vertex="1" parent="1">
          <mxGeometry x="-130" y="780" width="210" height="80" as="geometry" />
        </mxCell>
        <mxCell id="jwuHmIJ8ylgLaas11iSZ-51" value="&lt;font color=&quot;#ff3333&quot;&gt;如果db也没有，就在redis中缓存一个空串&lt;/font&gt;" style="ellipse;whiteSpace=wrap;html=1;" vertex="1" parent="1">
          <mxGeometry x="-370" y="580" width="120" height="80" as="geometry" />
        </mxCell>
        <mxCell id="jwuHmIJ8ylgLaas11iSZ-58" style="edgeStyle=orthogonalEdgeStyle;rounded=0;orthogonalLoop=1;jettySize=auto;html=1;exitX=0;exitY=1;exitDx=0;exitDy=0;curved=1;" edge="1" parent="1" source="jwuHmIJ8ylgLaas11iSZ-53" target="jwuHmIJ8ylgLaas11iSZ-57">
          <mxGeometry relative="1" as="geometry" />
        </mxCell>
        <mxCell id="jwuHmIJ8ylgLaas11iSZ-53" value="缓存雪崩" style="ellipse;whiteSpace=wrap;html=1;" vertex="1" parent="1">
          <mxGeometry x="-100" y="990" width="120" height="80" as="geometry" />
        </mxCell>
        <mxCell id="jwuHmIJ8ylgLaas11iSZ-63" style="edgeStyle=orthogonalEdgeStyle;rounded=0;orthogonalLoop=1;jettySize=auto;html=1;exitX=0;exitY=0.5;exitDx=0;exitDy=0;entryX=1;entryY=0.5;entryDx=0;entryDy=0;" edge="1" parent="1" source="jwuHmIJ8ylgLaas11iSZ-55" target="jwuHmIJ8ylgLaas11iSZ-62">
          <mxGeometry relative="1" as="geometry" />
        </mxCell>
        <mxCell id="jwuHmIJ8ylgLaas11iSZ-55" value="缓存并发建立" style="ellipse;whiteSpace=wrap;html=1;" vertex="1" parent="1">
          <mxGeometry x="-350" y="930" width="120" height="80" as="geometry" />
        </mxCell>
        <mxCell id="jwuHmIJ8ylgLaas11iSZ-57" value="&lt;font color=&quot;#ff3333&quot;&gt;设置随机过期时间&lt;/font&gt;" style="ellipse;whiteSpace=wrap;html=1;" vertex="1" parent="1">
          <mxGeometry x="-440" y="1080" width="120" height="80" as="geometry" />
        </mxCell>
        <mxCell id="jwuHmIJ8ylgLaas11iSZ-59" value="&lt;font color=&quot;#ff0000&quot;&gt;数据永久有效&lt;/font&gt;" style="ellipse;whiteSpace=wrap;html=1;" vertex="1" parent="1">
          <mxGeometry x="-350" y="780" width="120" height="80" as="geometry" />
        </mxCell>
        <mxCell id="jwuHmIJ8ylgLaas11iSZ-62" value="&lt;font color=&quot;#ff0000&quot;&gt;加锁后先get再set&lt;/font&gt;" style="ellipse;whiteSpace=wrap;html=1;" vertex="1" parent="1">
          <mxGeometry x="-590" y="920" width="120" height="80" as="geometry" />
        </mxCell>
        <mxCell id="jwuHmIJ8ylgLaas11iSZ-67" style="edgeStyle=orthogonalEdgeStyle;rounded=0;orthogonalLoop=1;jettySize=auto;html=1;exitX=0;exitY=0.5;exitDx=0;exitDy=0;entryX=1;entryY=0.5;entryDx=0;entryDy=0;" edge="1" parent="1" source="jwuHmIJ8ylgLaas11iSZ-64" target="jwuHmIJ8ylgLaas11iSZ-66">
          <mxGeometry relative="1" as="geometry" />
        </mxCell>
        <mxCell id="jwuHmIJ8ylgLaas11iSZ-64" value="并发双写不一致：&lt;div&gt;写db和写redis没绑定&lt;/div&gt;" style="ellipse;whiteSpace=wrap;html=1;" vertex="1" parent="1">
          <mxGeometry x="-55" y="1200" width="120" height="80" as="geometry" />
        </mxCell>
        <mxCell id="jwuHmIJ8ylgLaas11iSZ-70" style="edgeStyle=orthogonalEdgeStyle;rounded=0;orthogonalLoop=1;jettySize=auto;html=1;exitX=0;exitY=0.5;exitDx=0;exitDy=0;curved=1;" edge="1" parent="1" source="jwuHmIJ8ylgLaas11iSZ-66" target="jwuHmIJ8ylgLaas11iSZ-68">
          <mxGeometry relative="1" as="geometry" />
        </mxCell>
        <mxCell id="jwuHmIJ8ylgLaas11iSZ-66" value="&lt;font color=&quot;#ff0000&quot;&gt;加分布式锁&lt;/font&gt;" style="ellipse;whiteSpace=wrap;html=1;" vertex="1" parent="1">
          <mxGeometry x="-400" y="1240" width="120" height="80" as="geometry" />
        </mxCell>
        <mxCell id="jwuHmIJ8ylgLaas11iSZ-71" style="edgeStyle=orthogonalEdgeStyle;rounded=0;orthogonalLoop=1;jettySize=auto;html=1;exitX=0;exitY=0;exitDx=0;exitDy=0;entryX=1;entryY=0.5;entryDx=0;entryDy=0;curved=1;" edge="1" parent="1" source="jwuHmIJ8ylgLaas11iSZ-68" target="jwuHmIJ8ylgLaas11iSZ-69">
          <mxGeometry relative="1" as="geometry" />
        </mxCell>
        <mxCell id="jwuHmIJ8ylgLaas11iSZ-68" value="优化" style="ellipse;whiteSpace=wrap;html=1;" vertex="1" parent="1">
          <mxGeometry x="-650" y="1240" width="120" height="80" as="geometry" />
        </mxCell>
        <mxCell id="jwuHmIJ8ylgLaas11iSZ-69" value="&lt;font color=&quot;#ff0000&quot;&gt;读多写少&lt;br&gt;读写锁&lt;br&gt;RWLock&lt;br&gt;读场景并行&lt;br&gt;写场景穿行&lt;/font&gt;" style="ellipse;whiteSpace=wrap;html=1;" vertex="1" parent="1">
          <mxGeometry x="-890" y="1160" width="120" height="80" as="geometry" />
        </mxCell>
        <mxCell id="jwuHmIJ8ylgLaas11iSZ-75" style="edgeStyle=orthogonalEdgeStyle;rounded=0;orthogonalLoop=1;jettySize=auto;html=1;exitX=0.5;exitY=1;exitDx=0;exitDy=0;" edge="1" parent="1" source="jwuHmIJ8ylgLaas11iSZ-72" target="jwuHmIJ8ylgLaas11iSZ-74">
          <mxGeometry relative="1" as="geometry" />
        </mxCell>
        <mxCell id="jwuHmIJ8ylgLaas11iSZ-72" value="一致性" style="ellipse;whiteSpace=wrap;html=1;" vertex="1" parent="1">
          <mxGeometry x="210" y="1380" width="120" height="80" as="geometry" />
        </mxCell>
        <mxCell id="jwuHmIJ8ylgLaas11iSZ-74" value="更缓存请求放mq" style="ellipse;whiteSpace=wrap;html=1;" vertex="1" parent="1">
          <mxGeometry x="210" y="1540" width="120" height="80" as="geometry" />
        </mxCell>
      </root>
    </mxGraphModel>
  </diagram>
</mxfile>
